<svg width="36" height="36" viewBox="0 0 36 36" fill="none" xmlns="http://www.w3.org/2000/svg">
<path d="M1 33.4479C4.6549 32.7166 4.74029 32.5671 4.74029 29.3465V6.64859C4.74029 3.45117 4.57743 3.21328 1 2.5472V0H19.4922C29.6207 0 34.9719 3.11691 34.9719 10.8573C34.9719 16.6904 30.7631 22.3911 22.0376 22.3911C20.5853 22.435 19.1342 22.2752 17.7264 21.9154V20.1391C21.8412 19.0748 23.285 18.144 23.285 11.1696C23.285 4.55154 22.3475 2.33799 18.7554 2.33799C16.6712 2.33799 16.2722 2.90708 16.2722 5.24934V29.3484C16.2722 32.6135 16.3686 32.7837 20.481 33.4497V36H1V33.4497" fill="#D10019"/>
<path d="M9.84749 9.08906L9.82493 9.01647C9.76088 8.78103 9.73587 8.77249 9.46566 8.77249H7.71201C7.45339 8.77249 7.4296 8.79628 7.29419 8.97195L7.15268 9.16103H7.01727L6.87027 7.6898L6.92333 7.61356C7.20026 7.63125 7.38873 7.63674 7.65895 7.63674H9.46688C9.74319 7.63674 9.76088 7.61905 9.82005 7.39275L9.84932 7.28052H10.0384V9.09211L9.84749 9.08906ZM6.15966 8.83653C5.82418 8.86459 5.52896 8.61573 5.5009 8.28025C5.47223 7.94416 5.72171 7.64955 6.05719 7.62088C6.39328 7.59282 6.68789 7.84169 6.71656 8.17777C6.71778 8.19485 6.71839 8.21315 6.71839 8.23023C6.74217 8.5407 6.50978 8.81153 6.19931 8.8347C6.18589 8.83592 6.17247 8.83653 6.15966 8.83653ZM9.84749 11.0592L9.81822 10.9476C9.75417 10.6945 9.73587 10.6829 9.46505 10.6829H6.45976C6.14807 10.6829 6.11269 10.6945 6.01266 10.8884L5.91324 11.0885H5.75403L5.62411 9.60509L5.67718 9.52884C5.67718 9.52884 5.97118 9.54653 6.36522 9.54653H9.46688C9.74319 9.54653 9.76393 9.54653 9.82981 9.29401L9.84932 9.21227H10.0384V11.0586L9.84749 11.0592ZM8.57084 12.2712C7.7297 12.2712 7.47657 12.4829 7.47657 12.8653C7.47779 12.9947 7.50158 13.1221 7.54733 13.2423H9.64194C9.7682 13.1453 9.842 12.9953 9.842 12.8361C9.842 12.4768 9.67121 12.2706 8.57084 12.2712ZM9.71086 14.3774H6.45976C6.14807 14.3774 6.10659 14.3835 6.01266 14.5653L5.91324 14.7654H5.75403L5.62411 13.3021L5.67718 13.2252C5.67718 13.2252 5.97118 13.2423 6.36522 13.2423H7.29419V13.2124C7.03191 12.9635 6.87942 12.6207 6.87027 12.2596C6.87027 11.707 7.2704 11.1123 8.31771 11.1123C9.20215 11.0086 10.0036 11.6418 10.1073 12.5262C10.1214 12.6525 10.1214 12.7799 10.1067 12.9062C10.1342 13.4265 9.99572 13.9419 9.71086 14.3774ZM9.31683 18.0543H7.69494C7.4357 18.0543 7.40581 18.0604 7.2765 18.2544L7.15451 18.4428H7.0191L6.8721 16.9948L6.92516 16.9185H9.03136C9.38453 16.9185 9.48396 16.7965 9.48396 16.5715C9.47969 16.4294 9.45407 16.2884 9.40771 16.1536H7.69433C7.43509 16.1536 7.39422 16.1719 7.27589 16.3537L7.1539 16.5416H7.0191L6.8721 15.0941L6.92516 15.0179H9.27352C9.5785 15.0179 9.609 15.0118 9.68524 14.8184L9.74624 14.6714H9.91154L10.1116 16.0481L10.0585 16.1244L9.64621 16.1122V16.1414C9.92923 16.4592 10.0933 16.8649 10.1116 17.2894C10.1458 17.6792 9.85725 18.0226 9.46688 18.0573C9.41808 18.0616 9.36867 18.061 9.31988 18.0549H9.31683V18.0543ZM6.52808 17.2955L5.83943 16.6075C5.73574 16.516 5.67413 16.3867 5.66925 16.2488C5.6845 16.0359 5.8681 15.8761 6.08097 15.8889C6.25908 15.8847 6.41279 16.0134 6.43963 16.189L6.6458 17.243L6.52808 17.2955ZM8.49094 7.24209C7.27894 7.24209 6.87332 6.26066 6.87332 5.37744C6.87332 4.77723 7.0624 4.37649 7.45583 4.37649C7.69372 4.36124 7.89866 4.54057 7.91452 4.77784C7.91574 4.79492 7.91574 4.81261 7.91452 4.82969C7.91452 5.18286 7.6559 5.28899 7.37898 5.31217C7.17952 5.32986 7.14353 5.35975 7.14353 5.54823C7.14353 5.7916 7.27345 6.12403 8.21462 6.12403C9.05576 6.12403 9.52116 5.88858 9.52116 5.21824C9.51933 4.93643 9.44919 4.66012 9.315 4.41247H9.52116C9.91032 4.72722 10.1287 5.20665 10.1098 5.70682C10.1647 6.50404 9.56325 7.1939 8.76664 7.2488C8.67454 7.25551 8.58182 7.25307 8.49094 7.24209ZM8.50253 4.31427C7.57965 4.35087 6.80317 3.63172 6.76657 2.70885C6.73059 1.78598 7.44912 1.00888 8.37199 0.972895C9.29487 0.936297 10.072 1.65544 10.1086 2.57832C10.1092 2.59967 10.1098 2.62162 10.1098 2.64297C10.1805 3.49021 9.55166 4.23437 8.70442 4.30573C8.63672 4.31122 8.5684 4.31244 8.50009 4.30939L8.50253 4.31427ZM8.52632 2.14951C7.26247 2.14951 7.13865 2.34897 7.13865 2.66127C7.13865 2.95527 7.34482 3.13765 8.397 3.13765C9.68585 3.13765 9.84444 2.98455 9.84444 2.63199C9.842 2.36483 9.75417 2.14707 8.52388 2.14707L8.52632 2.14951ZM9.84444 22.3747L9.80419 22.2094C9.75661 22.0099 9.73343 21.9501 9.3333 21.9501H6.66471C6.26457 21.9501 6.24139 22.0111 6.19443 22.2094L6.15295 22.3747H5.95837V20.2776C5.95837 19.1303 6.31154 18.524 7.18867 18.524C7.90781 18.5429 8.47569 19.1412 8.45678 19.8604C8.45617 19.9025 8.45251 19.9458 8.44702 19.9879C8.44763 20.1538 8.41957 20.3191 8.36468 20.4758H8.15912C8.12984 19.994 7.96454 19.8464 7.22405 19.8464C6.42377 19.8464 6.2481 19.9684 6.2481 20.3648C6.24993 20.4582 6.26579 20.5521 6.29507 20.6405H9.33086C9.7133 20.6405 9.73099 20.6058 9.78955 20.3709L9.84261 20.1648H10.0366V22.371H9.84261" fill="#D10019"/>
</svg>
