<svg width="36" height="36" viewBox="0 0 36 36" fill="none" xmlns="http://www.w3.org/2000/svg">
<path d="M18.2555 35.7446C28.0555 35.6035 35.8856 27.5446 35.7445 17.7446C35.6035 7.94452 27.5446 0.11439 17.7445 0.255473C7.9445 0.396555 0.11437 8.45543 0.255452 18.2555C0.396535 28.0555 8.45541 35.8857 18.2555 35.7446Z" fill="#6081C4"/>
<path d="M19.5843 13.8484V12.1688C19.5843 11.3449 20.123 11.1548 20.5033 11.1548C20.8835 11.1548 22.8483 11.1548 22.8483 11.1548V7.54211H19.5843C15.9716 7.54211 15.1477 10.2358 15.1477 11.947V13.8484H13.0878V16.3836V18.0631H15.1794C15.1794 22.8166 15.1794 28.5842 15.1794 28.5842H19.3941C19.3941 28.5842 19.3941 22.7849 19.3941 18.0631H22.4997L22.6582 16.4153L22.88 13.8484H19.5843Z" fill="white"/>
</svg>
