<svg width="36" height="36" viewBox="0 0 36 36" fill="none" xmlns="http://www.w3.org/2000/svg">
<path d="M36 18C36 27.9321 27.9321 36 18 36C8.06786 36 0 27.9321 0 18C0 8.06786 8.06786 0 18 0C27.9321 0 36 8.03572 36 18Z" fill="#2797CF"/>
<path d="M7.77856 17.2928V27.7393H12.7607V16.4571V13.5321H7.77856V17.2928Z" fill="white"/>
<path d="M10.2857 6.42859C8.90359 6.42859 7.81073 7.55359 7.81073 8.90359C7.81073 10.2857 8.93573 11.3786 10.2857 11.3786C11.6357 11.3786 12.7607 10.2536 12.7607 8.90359C12.7607 7.52145 11.6357 6.42859 10.2857 6.42859Z" fill="white"/>
<path d="M28.9928 17.9035C28.6714 15.2357 27.4178 13.5321 23.7857 13.5321C21.6321 13.5321 20.1857 14.3357 19.6071 15.4607H19.5428V13.5321H15.5892V16.2642V27.7393H19.7357V20.7C19.7357 18.8357 20.0892 17.0357 22.3714 17.0357C24.6214 17.0357 24.8142 19.1571 24.8142 20.8285V27.7714H29.0892V19.9607C29.1214 19.1892 29.0892 18.5142 28.9928 17.9035Z" fill="white"/>
</svg>
