<svg width="36" height="36" viewBox="0 0 36 36" fill="none" xmlns="http://www.w3.org/2000/svg">
<path d="M36 18C36 27.9321 27.9321 36 18 36C8.06786 36 0 27.9321 0 18C0 8.06786 8.06786 0 18 0C27.9321 0 36 8.03571 36 18Z" fill="#D10019"/>
<path fill-rule="evenodd" clip-rule="evenodd" d="M9.76337 10.9286C9.39041 10.9286 9.03272 11.0776 8.769 11.3428C8.50527 11.6081 8.35712 11.9678 8.35712 12.3429V23.6572C8.35712 24.4378 8.98712 25.0714 9.76337 25.0714H26.2366C26.6095 25.0714 26.9672 24.9224 27.2309 24.6572C27.4947 24.392 27.6428 24.0323 27.6428 23.6572V12.3429C27.6428 11.9678 27.4947 11.6081 27.2309 11.3428C26.9672 11.0776 26.6095 10.9286 26.2366 10.9286H9.76337ZM9.56247 12.3429C9.56247 12.2893 9.58364 12.2379 9.62131 12.2C9.65899 12.1621 9.71009 12.1408 9.76337 12.1408H26.2366C26.2899 12.1408 26.341 12.1621 26.3786 12.2C26.4163 12.2379 26.4375 12.2893 26.4375 12.3429V13.0314L18.1125 18.6886C18.0793 18.7112 18.0401 18.7232 18 18.7232C17.9599 18.7232 17.9207 18.7112 17.8875 18.6886L9.56247 13.0314V12.3429ZM9.56247 14.4942V23.6572C9.56247 23.7687 9.65247 23.8592 9.76337 23.8592H26.2366C26.2899 23.8592 26.341 23.8379 26.3786 23.8C26.4163 23.7621 26.4375 23.7107 26.4375 23.6572V14.4942L18.7875 19.6931C18.3118 20.0164 17.6882 20.0164 17.2125 19.6931L9.56247 14.4942Z" fill="white"/>
</svg>
