<svg width="36" height="36" viewBox="0 0 36 36" fill="none" xmlns="http://www.w3.org/2000/svg">
<path d="M18 14.75H14.25V18.5H18V14.75ZM19.25 21V22.25H13V21H19.25ZM19.25 13.5V19.75H13V13.5H19.25ZM25.5 21V22.25H20.5V21H25.5ZM25.5 18.5V19.75H20.5V18.5H25.5ZM25.5 16V17.25H20.5V16H25.5ZM25.5 13.5V14.75H20.5V13.5H25.5ZM10.5 22.875V13.5H9.25V22.875C9.25 23.0443 9.31185 23.1908 9.43555 23.3145C9.55924 23.4382 9.70573 23.5 9.875 23.5C10.0443 23.5 10.1908 23.4382 10.3145 23.3145C10.4382 23.1908 10.5 23.0443 10.5 22.875ZM26.75 22.875V12.25H11.75V22.875C11.75 23.0898 11.7142 23.2982 11.6426 23.5H26.125C26.2943 23.5 26.4408 23.4382 26.5645 23.3145C26.6882 23.1908 26.75 23.0443 26.75 22.875ZM28 11V22.875C28 23.3958 27.8177 23.8385 27.4531 24.2031C27.0885 24.5677 26.6458 24.75 26.125 24.75H9.875C9.35417 24.75 8.91146 24.5677 8.54688 24.2031C8.18229 23.8385 8 23.3958 8 22.875V12.25H10.5V11H28Z" fill="#4F4F4F"/>
</svg>
