<svg width="36" height="36" viewBox="0 0 36 36" fill="none" xmlns="http://www.w3.org/2000/svg">
<path fill-rule="evenodd" clip-rule="evenodd" d="M20.4939 10.503C21.821 10.503 23.0938 11.0302 24.0323 11.9687C24.9707 12.9071 25.498 14.1799 25.498 15.5071C25.498 16.8342 24.9707 18.1071 24.0323 19.0455C23.0938 19.984 21.821 20.5112 20.4939 20.5112C19.1667 20.5112 17.8939 19.984 16.9555 19.0455C16.017 18.1071 15.4898 16.8342 15.4898 15.5071C15.4898 14.1799 16.017 12.9071 16.9555 11.9687C17.8939 11.0302 19.1667 10.503 20.4939 10.503ZM28 15.5071C28.0002 14.3257 27.7215 13.1611 27.1866 12.1077C26.6518 11.0544 25.8759 10.1422 24.922 9.44529C23.9681 8.74838 22.8632 8.28646 21.6972 8.09708C20.5311 7.9077 19.3368 7.99622 18.2114 8.35544C17.086 8.71465 16.0613 9.33442 15.2206 10.1643C14.3799 10.9943 13.747 12.0109 13.3732 13.1316C12.9995 14.2522 12.8956 15.4453 13.0699 16.6137C13.2442 17.7821 13.6918 18.8928 14.3764 19.8556L8.35022 25.8818C8.12234 26.1177 7.99624 26.4338 7.99909 26.7618C8.00194 27.0898 8.13351 27.4036 8.36546 27.6355C8.59741 27.8674 8.91118 27.999 9.23919 28.0019C9.56721 28.0047 9.88322 27.8786 10.1192 27.6507L16.1441 21.6258C17.267 22.4243 18.5881 22.8983 19.9626 22.9958C21.3371 23.0934 22.7118 22.8107 23.9363 22.1787C25.1608 21.5468 26.1877 20.59 26.9045 19.4132C27.6212 18.2364 28.0003 16.885 28 15.5071V15.5071Z" fill="#4F4F4F"/>
</svg>
