<svg width="36" height="36" viewBox="0 0 36 36" fill="none" xmlns="http://www.w3.org/2000/svg">
<path d="M36 18C36 27.9321 27.9321 36 18 36C8.06786 36 0 27.9321 0 18C0 8.06786 8.06786 0 18 0C27.9321 0 36 8.06786 36 18Z" fill="#43BDEF"/>
<path d="M28.6393 12.5036C27.8679 12.8572 27 13.0822 26.1322 13.1786C27.0322 12.6322 27.7393 11.7965 28.0607 10.8C27.225 11.2822 26.2929 11.6679 25.2964 11.8607C24.4929 11.025 23.3679 10.5107 22.1143 10.5107C19.7036 10.5107 17.7429 12.4393 17.7429 14.8179C17.7429 15.1715 17.775 15.4929 17.8393 15.8143C14.2072 15.6215 10.9929 13.9179 8.80717 11.3143C8.42145 11.9572 8.2286 12.6965 8.2286 13.4679C8.2286 14.9465 9.00002 16.2643 10.1893 17.0679C9.48216 17.0357 8.80716 16.8429 8.19644 16.5215C8.19644 16.5536 8.19644 16.5536 8.19644 16.5857C8.19644 17.1322 8.29288 17.6786 8.48574 18.1607C9.03217 19.5107 10.2215 20.5393 11.7 20.8286C11.3465 20.925 10.9607 20.9893 10.5429 20.9893C10.2536 20.9893 9.99645 20.9572 9.70716 20.925C10.2536 22.6286 11.8929 23.8822 13.7893 23.9143C12.2786 25.0715 10.4143 25.7465 8.35716 25.7465C8.00359 25.7465 7.65002 25.7143 7.29645 25.6822C9.22502 26.9036 11.5393 27.6107 14.0143 27.6107C20.8607 27.6107 25.0715 22.8857 26.1643 17.9679C26.3572 17.1 26.4536 16.2322 26.4536 15.3643C26.4536 15.1714 26.4536 14.9786 26.4536 14.8179C27.3214 14.1429 28.0607 13.3715 28.6393 12.5036Z" fill="white"/>
</svg>
