<svg width="36" height="36" viewBox="0 0 36 36" fill="none" xmlns="http://www.w3.org/2000/svg">
<path d="M36 18C36 27.9321 27.9321 36 18 36C8.06786 36 0 27.9321 0 18C0 8.06786 8.06786 0 18 0C27.9321 0 36 8.03571 36 18Z" fill="#23B180"/>
<path d="M28.6393 16.6821C28.5107 11.0571 23.8821 6.55713 18.1929 6.55713C12.5679 6.55713 7.97143 10.9607 7.74643 16.4893C7.74643 16.65 7.74643 16.7786 7.74643 16.9393C7.74643 18.9 8.29286 20.7321 9.25715 22.3071L7.36072 27.8678L13.1464 26.0357C14.6571 26.8714 16.3607 27.3214 18.1929 27.3214C23.9786 27.3214 28.6714 22.6607 28.6714 16.9393C28.6393 16.875 28.6393 16.7786 28.6393 16.6821ZM18.1929 25.6821C16.3929 25.6821 14.7536 25.1357 13.3393 24.2357L9.96429 25.2964L11.0571 22.05C9.99643 20.6036 9.38572 18.8357 9.38572 16.9393C9.38572 16.65 9.38572 16.3607 9.41786 16.1036C9.83572 11.6678 13.6286 8.22856 18.1929 8.22856C22.8214 8.22856 26.6143 11.7964 26.9679 16.2964C27 16.5214 27 16.7464 27 16.9714C26.9679 21.7607 23.0464 25.6821 18.1929 25.6821Z" fill="white"/>
<path d="M22.9821 19.0286C22.725 18.9 21.4714 18.2893 21.2143 18.1928C20.9893 18.0964 20.7964 18.0643 20.6357 18.3214C20.475 18.5786 19.9607 19.1571 19.8322 19.3178C19.6714 19.4786 19.5429 19.5107 19.2857 19.3821C19.0286 19.2536 18.1929 18.9964 17.2286 18.1286C16.4572 17.4536 15.9429 16.6178 15.8143 16.3607C15.6536 16.1036 15.8143 15.975 15.9107 15.8464C16.0393 15.7178 16.1679 15.5571 16.2964 15.3964C16.3286 15.3643 16.3607 15.3 16.3929 15.2678C16.4572 15.1714 16.4893 15.075 16.5536 14.9786C16.65 14.8178 16.5857 14.6571 16.5214 14.5286C16.4572 14.4 15.9429 13.1464 15.7179 12.6321C15.4929 12.1178 15.3 12.2143 15.1393 12.2143C14.9786 12.2143 14.8179 12.1821 14.6572 12.1821C14.4964 12.1821 14.2072 12.2464 13.9822 12.5036C13.7572 12.7607 13.0822 13.3714 13.0822 14.625C13.0822 14.9143 13.1464 15.2036 13.2107 15.4928C13.4679 16.3928 14.0143 17.1321 14.1107 17.2607C14.2393 17.4214 15.8786 20.0893 18.4822 21.1178C21.0857 22.1464 21.0857 21.7928 21.5679 21.7607C22.05 21.7286 23.0786 21.15 23.3036 20.5393C23.5286 19.9607 23.5286 19.4464 23.4643 19.3178C23.4 19.2214 23.2393 19.1571 22.9821 19.0286Z" fill="white"/>
</svg>
